<?xml version="1.0" standalone="no"?>
<!DOCTYPE svg PUBLIC "-//W3C//DTD SVG 20010904//EN"
 "http://www.w3.org/TR/2001/REC-SVG-20010904/DTD/svg10.dtd">
<svg version="1.0" xmlns="http://www.w3.org/2000/svg"
 width="512.000000pt" height="512.000000pt" viewBox="0 0 512.000000 512.000000"
 preserveAspectRatio="xMidYMid meet">

<g transform="translate(0.000000,512.000000) scale(0.100000,-0.100000)"
fill="#000000" stroke="none">
<path d="M2998 3918 c-152 -656 -276 -1194 -275 -1195 2 -1 2353 542 2380 550
4 1 -406 415 -911 920 l-917 917 -277 -1192z"/>
<path d="M1190 2122 c-646 -151 -1177 -277 -1180 -279 -4 -4 1821 -1833 1830
-1833 4 0 535 2255 558 2368 3 17 0 22 -14 21 -11 -1 -548 -125 -1194 -277z"/>
</g>
</svg>
