<?xml version="1.0" standalone="no"?>
<!DOCTYPE svg PUBLIC "-//W3C//DTD SVG 20010904//EN"
 "http://www.w3.org/TR/2001/REC-SVG-20010904/DTD/svg10.dtd">
<svg version="1.0" xmlns="http://www.w3.org/2000/svg"
 width="512.000000pt" height="512.000000pt" viewBox="0 0 512.000000 512.000000"
 preserveAspectRatio="xMidYMid meet">

<g transform="translate(0.000000,512.000000) scale(0.100000,-0.100000)"
fill="#000000" stroke="none">
<path d="M2987 3916 c-642 -150 -1169 -275 -1172 -277 -2 -3 407 -416 909
-918 729 -729 915 -910 920 -895 5 18 531 2282 543 2337 4 22 2 27 -13 26 -11
-1 -544 -124 -1187 -273z"/>
<path d="M1206 2129 c-153 -655 -275 -1193 -273 -1196 3 -2 461 102 1019 232
557 130 1092 255 1188 277 96 22 177 42 180 45 4 4 -1821 1833 -1830 1833 -3
0 -131 -536 -284 -1191z"/>
</g>
</svg>
