<?xml version="1.0" standalone="no"?>
<!DOCTYPE svg PUBLIC "-//W3C//DTD SVG 20010904//EN"
 "http://www.w3.org/TR/2001/REC-SVG-20010904/DTD/svg10.dtd">
<svg version="1.0" xmlns="http://www.w3.org/2000/svg"
 width="512.000000pt" height="512.000000pt" viewBox="0 0 512.000000 512.000000"
 preserveAspectRatio="xMidYMid meet">

<g transform="translate(0.000000,512.000000) scale(0.100000,-0.100000)"
fill="#000000" stroke="none">
<path d="M470 4645 l-465 -465 810 -810 810 -810 -810 -810 -810 -810 468
-467 467 -468 810 810 810 810 810 -810 810 -810 467 468 468 467 -810 810
-810 810 810 810 810 810 -468 467 -467 468 -810 -810 -810 -810 -808 808
c-444 444 -809 807 -812 807 -3 0 -214 -209 -470 -465z"/>
</g>
</svg>
